<?xml version="1.0" encoding="UTF-8" standalone="no"?>
<!-- Created with Inkscape (http://www.inkscape.org/) -->

<svg
   width="126.75536mm"
   height="126.28878mm"
   viewBox="0 0 126.75536 126.28878"
   version="1.1"
   id="svg5"
   xml:space="preserve"
   xmlns="http://www.w3.org/2000/svg"
   xmlns:svg="http://www.w3.org/2000/svg"><defs
     id="defs2" /><g
     id="layer1"
     transform="translate(-5.8177357,-37.683206)"><path
       d="m 56.553208,38.941983 c -24.72532,4.84717 -44.63521,24.78088 -49.4770896,49.50354 -7.31308003,37.279797 18.1636496,70.432087 52.6785496,75.432707 5.02972,0.76412 9.56997,-3.24379 9.56997,-8.33173 l 3e-5,-0.17544 c 0,-4.16454 -3.02683,-7.64117 -7.10142,-8.26559 -22.3176,-3.43429 -39.47583,-22.78856 -39.47583,-46.09041 0,-27.225627 23.44473,-49.080207 51.17042,-46.407917 24.21996,2.34659 41.962912,24.14323 41.962912,48.471667 v 4.27567 c 0,5.84464 -4.74662,10.59656 -10.58333,10.59656 -5.836712,0 -10.585982,-4.75192 -10.585982,-10.59656 V 75.578023 c 0,-2.34077 -1.89468,-4.23863 -4.23598,-4.23863 l -8.46137,9.5e-4 c -1.9312,0 -3.4925,1.3208 -4.0005,3.09034 -6.5749,-3.21469 -14.351,-4.33388 -22.77004,-1.35096 -10.25261,3.63272 -18.02342,12.94077 -19.50509,23.71725 -2.50904,18.258887 11.5914,33.866657 29.34229,33.866657 6.99559,0 13.34294,-2.52518 18.41236,-6.58283 6.35,8.28146 17.258772,12.88256 28.945412,9.91923 12.21844,-2.83223 20.3676,-14.7914 20.12948,-27.20036 v -5.52979 c 0,-39.475827 -35.427712,-70.281797 -76.014792,-62.327897 z m 8.28146,75.027897 c -7.00353,0 -12.7,-5.70442 -12.7,-12.71323 0,-7.008807 5.69647,-12.713227 12.7,-12.713227 7.00352,0 12.7,5.70442 12.7,12.713227 0,7.00881 -5.45042,12.71323 -12.7,12.71323 z"
       id="path2375"
       style="fill:#f8ecea;fill-opacity:1;stroke-width:0.264583" /></g></svg>
