<?xml version="1.0" encoding="UTF-8" standalone="no"?>
<!-- Created with Inkscape (http://www.inkscape.org/) -->

<svg
   width="131.23328mm"
   height="127.95447mm"
   viewBox="0 0 131.23328 127.95447"
   version="1.1"
   id="svg5"
   xml:space="preserve"
   xmlns="http://www.w3.org/2000/svg"
   xmlns:svg="http://www.w3.org/2000/svg"><defs
     id="defs2" /><g
     id="layer1"
     transform="translate(-2.3925295,-35.268758)"><path
       d="m 46.286909,138.29751 c 0,0.52916 -0.60854,0.9525 -1.37583,0.9525 -0.87313,0.0794 -1.48167,-0.34396 -1.48167,-0.9525 0,-0.52917 0.60854,-0.9525 1.37583,-0.9525 0.79375,-0.0794 1.48167,0.34395 1.48167,0.9525 z m -8.22854,-1.19063 c -0.18521,0.52917 0.34396,1.13771 1.13771,1.29646 0.68791,0.26458 1.48166,0 1.64041,-0.52917 0.15875,-0.52916 -0.34396,-1.13771 -1.13771,-1.37583 -0.68791,-0.18521 -1.4552,0.0794 -1.64041,0.60854 z m 11.69458,-0.44979 c -0.76729,0.18521 -1.29646,0.68792 -1.21708,1.29646 0.0794,0.52916 0.76729,0.87312 1.56104,0.68791 0.76729,-0.1852 1.29646,-0.68791 1.21708,-1.21708 -0.0794,-0.50271 -0.79375,-0.84667 -1.56104,-0.76729 z M 67.162529,35.268758 c -36.6977,0 -64.7699995,27.86062 -64.7699995,64.55833 0,29.342292 18.4679195,54.451252 44.8468795,63.288332 3.38667,0.60854 4.57729,-1.48166 4.57729,-3.20146 0,-1.64041 -0.0794,-10.68916 -0.0794,-16.24541 0,0 -18.52083,3.96875 -22.41021,-7.88459 0,0 -3.01625,-7.69937 -7.35541,-9.68374 0,0 -6.05896,-4.15396 0.42333,-4.07459 0,0 6.58812,0.52917 10.21292,6.82625 5.79437,10.21292 15.50458,7.27604 19.28812,5.52979 0.60854,-4.23333 2.32833,-7.1702 4.23333,-8.91645 -14.7902,-1.64042 -29.7127,-3.78355 -29.7127,-29.236462 0,-7.27604 2.01083,-10.92729 6.24416,-15.58396 -0.68791,-1.71979 -2.93687,-8.81063 0.68792,-17.96521 5.52979,-1.71979 18.25625,7.14375 18.25625,7.14375 5.29167,-1.48167 10.98021,-2.24896 16.61583,-2.24896 5.63563,0 11.32417,0.76729 16.61584,2.24896 0,0 12.72645,-8.89 18.256251,-7.14375 3.62479,9.18104 1.37583,16.24542 0.68791,17.96521 4.23334,4.68312 6.82625,8.33437 6.82625,15.58396 0,25.532292 -15.583961,27.569582 -30.374161,29.236462 2.43416,2.0902 4.49791,6.05895 4.49791,12.27666 0,8.91646 -0.0794,19.94958 -0.0794,22.11917 0,1.71979 1.21709,3.81 4.57729,3.20146 26.458331,-8.78417 44.397081,-33.89313 44.397081,-63.235422 0,-36.69771 -29.76562,-64.55833 -66.463331,-64.55833 z m -39.0525,91.254792 c -0.34395,0.26458 -0.26458,0.87312 0.18521,1.37583 0.42334,0.42334 1.03188,0.60854 1.37584,0.26459 0.34395,-0.26459 0.26458,-0.87313 -0.18521,-1.37584 -0.42334,-0.42333 -1.03188,-0.60854 -1.37584,-0.26458 z m -2.8575,-2.14313 c -0.1852,0.34396 0.0794,0.7673 0.60855,1.03188 0.42333,0.26458 0.9525,0.18521 1.1377,-0.18521 0.18521,-0.34396 -0.0794,-0.76729 -0.60854,-1.03187 -0.52916,-0.15875 -0.9525,-0.0794 -1.13771,0.1852 z m 8.5725,9.41917 c -0.42333,0.34396 -0.26458,1.13771 0.34396,1.64042 0.60854,0.60854 1.37584,0.68791 1.71979,0.26458 0.34396,-0.34396 0.18521,-1.13771 -0.34395,-1.64042 -0.58209,-0.60854 -1.37584,-0.68791 -1.7198,-0.26458 z m -3.01625,-3.88937 c -0.42333,0.26458 -0.42333,0.9525 0,1.56104 0.42334,0.60854 1.13771,0.87312 1.48167,0.60854 0.42333,-0.34396 0.42333,-1.03188 0,-1.64042 -0.37042,-0.60854 -1.05833,-0.87312 -1.48167,-0.52916 z"
       id="path6928"
       style="fill:#f8ecea;fill-opacity:1;stroke-width:0.264583" /></g></svg>
