<?xml version="1.0" encoding="UTF-8" standalone="no"?>
<!-- Created with Inkscape (http://www.inkscape.org/) -->

<svg
   width="135.46613mm"
   height="110.02355mm"
   viewBox="0 0 135.46613 110.02355"
   version="1.1"
   id="svg5"
   xml:space="preserve"
   xmlns="http://www.w3.org/2000/svg"
   xmlns:svg="http://www.w3.org/2000/svg"><defs
     id="defs2" /><g
     id="layer1"
     transform="translate(0.51466226,-45.81582)"><path
       d="m 121.02698,73.235652 c 0.086,1.20333 0.086,2.40692 0.086,3.61024 0,36.702998 -27.935512,78.993478 -78.993482,78.993478 -15.73001,0 -30.34242,-4.55587 -42.63416026,-12.46347 2.23492996,0.25771 4.38360996,0.3437 6.70453996,0.3437 12.9791303,0 24.9271903,-4.38362 34.4683303,-11.86181 -12.20576,-0.25796 -22.43455,-8.25182 -25.9588,-19.25425 1.71926,0.2577 3.43826,0.42968 5.24351,0.42968 2.49264,0 4.98554,-0.34396 7.3062,-0.94536 C 14.527678,109.50897 4.9862777,98.334822 4.9862777,84.839752 v -0.3437 c 3.69596,2.06296 7.9941203,3.35228 12.5494503,3.52399 -7.47818,-4.98554 -12.3774703,-13.49507 -12.3774703,-23.1222 0,-5.15726 1.37504,-9.88484 3.78195,-14.01075 13.6670503,16.84735 34.2106303,27.84951 57.2465703,29.0531 -0.42968,-2.06295 -0.68765,-4.21163 -0.68765,-6.36058 0,-15.30032 12.37774,-27.76379 27.76379,-27.76379 7.993862,0 15.214072,3.35227 20.285612,8.7675 6.27459,-1.20332 12.29148,-3.52425 17.62098,-6.70454 -2.06322,6.44684 -6.44683,11.86206 -12.20576,15.30006 5.58721,-0.6014 11.00244,-2.14895 15.98772,-4.29763 -3.78143,5.50095 -8.50927,10.40024 -13.92449,14.35444 z"
       id="path7006"
       style="fill:#f8ecea;fill-opacity:1;stroke-width:0.264583" /></g></svg>
